# xmcd
#
# Track frame offsets:
#	150
#	19516
#	36453
#	54450
#	72245
#	88568
#	105095
#	121181
#	137056
#
# Disc length: 2054 seconds
#
# Revision: 0
# Processed by: cddbd v1.5.1PL0 Copyright (c) Steve Scherf et al.
# Submitted via: EasyCDDAExtractor 8.0.1.1
#
DISCID=6c080409
DTITLE=Bellamy Brothers - Plain and Fancy
DYEAR=1977
DGENRE=Country
TTITLE0=You Made Me
TTITLE1=Tiger Lily Lover
TTITLE2=Memorabilia
TTITLE3=Maybe By Then
TTITLE4=Crossfire
TTITLE5=Miss Misunderstood
TTITLE6=If It's So Easy
TTITLE7=Hard Rockin'
TTITLE8=Can Somebody Hear Me Now
EXTD=
EXTT0=
EXTT1=
EXTT2=
EXTT3=
EXTT4=
EXTT5=
EXTT6=
EXTT7=
EXTT8=
PLAYORDER=
